<?xml version="1.0" encoding="UTF-8" standalone="no"?>
<!-- Created with Inkscape (http://www.inkscape.org/) -->

<svg
   xmlns:dc="http://purl.org/dc/elements/1.1/"
   xmlns:cc="http://creativecommons.org/ns#"
   xmlns:rdf="http://www.w3.org/1999/02/22-rdf-syntax-ns#"
   xmlns:svg="http://www.w3.org/2000/svg"
   xmlns="http://www.w3.org/2000/svg"
   xmlns:sodipodi="http://sodipodi.sourceforge.net/DTD/sodipodi-0.dtd"
   xmlns:inkscape="http://www.inkscape.org/namespaces/inkscape"
   width="400"
   height="400"
   viewBox="0 0 105.83333 105.83334"
   version="1.1"
   id="svg8"
   inkscape:version="0.92.4 (5da689c313, 2019-01-14)"
   sodipodi:docname="tabu-bars.svg">
  <defs
     id="defs2" />
  <sodipodi:namedview
     id="base"
     pagecolor="#ffffff"
     bordercolor="#666666"
     borderopacity="1.0"
     inkscape:pageopacity="0.0"
     inkscape:pageshadow="2"
     inkscape:zoom="1.7188771"
     inkscape:cx="305.526"
     inkscape:cy="208.96867"
     inkscape:document-units="mm"
     inkscape:current-layer="layer1"
     showgrid="false"
     inkscape:window-width="3840"
     inkscape:window-height="2035"
     inkscape:window-x="-13"
     inkscape:window-y="-13"
     inkscape:window-maximized="1"
     units="px" />
  <metadata
     id="metadata5">
    <rdf:RDF>
      <cc:Work
         rdf:about="">
        <dc:format>image/svg+xml</dc:format>
        <dc:type
           rdf:resource="http://purl.org/dc/dcmitype/StillImage" />
        <dc:title></dc:title>
      </cc:Work>
    </rdf:RDF>
  </metadata>
  <g
     inkscape:label="Layer 1"
     inkscape:groupmode="layer"
     id="layer1"
     transform="translate(0,-191.16665)">
    <text
       xml:space="preserve"
       style="font-style:normal;font-weight:normal;font-size:10.58333302px;line-height:1.25;font-family:sans-serif;letter-spacing:0px;word-spacing:0px;fill:#000000;fill-opacity:1;stroke:none;stroke-width:0.26458332"
       x="56.054417"
       y="109.57143"
       id="text825"><tspan
         sodipodi:role="line"
         id="tspan823"
         x="56.054417"
         y="118.9352"
         style="stroke-width:0.26458332" /></text>
    <g
       id="g4574"
       transform="matrix(3.9951233,0,0,3.9951233,-29.3679,-877.11708)">
      <g
         transform="translate(-37.025901,180.283)"
         inkscape:export-ydpi="95"
         inkscape:export-xdpi="95"
         id="text817"
         style="font-style:normal;font-weight:normal;font-size:10.58333302px;line-height:1.25;font-family:sans-serif;letter-spacing:0px;word-spacing:0px;fill:#ff8000;fill-opacity:1;stroke:none;stroke-width:0.26458332"
         aria-label="Tabu">
        <path
           sodipodi:nodetypes="cccccccccc"
           inkscape:connector-curvature="0"
           id="path4549"
           style="font-style:normal;font-variant:normal;font-weight:normal;font-stretch:normal;font-family:Bahnschrift;-inkscape-font-specification:Bahnschrift;fill:#ff8000;fill-opacity:1;stroke-width:0.26458332"
           d="m 49.149802,94.618195 h 1.054199 V 106.717 h -1.054199 z m -2.123901,-0.61495 h 5.302001 v 1.002523 h -5.302001 z" />
        <path
           inkscape:connector-curvature="0"
           id="path4551"
           style="font-style:normal;font-variant:normal;font-weight:normal;font-stretch:normal;font-family:Bahnschrift;-inkscape-font-specification:Bahnschrift;fill:#ff8000;fill-opacity:1;stroke-width:0.26458332"
           d="m 55.676535,98.116689 q 0,-0.527099 -0.284221,-0.816487 -0.279052,-0.294556 -0.795817,-0.294556 -0.320393,0 -0.630452,0.09819 -0.304891,0.09819 -0.542603,0.273885 l -0.769978,-0.527099 q 0.304891,-0.366903 0.800984,-0.568441 0.501262,-0.206706 1.111044,-0.206706 0.666626,0 1.142049,0.237712 0.475423,0.232544 0.72347,0.682129 0.248047,0.444417 0.248047,1.074869 v 3.446825 h -1.002523 z m -1.312581,3.477821 q -0.992188,0 -1.483114,-0.40824 -0.490926,-0.41341 -0.490926,-1.25057 0,-0.795818 0.449585,-1.193726 0.449585,-0.397909 1.35909,-0.397909 h 1.524455 l 0.07235,0.847494 H 54.20376 q -0.413412,0 -0.620118,0.186035 -0.201538,0.180868 -0.201538,0.558106 0,0.40824 0.268718,0.60461 0.273885,0.19637 0.826823,0.19637 0.604614,0 0.89917,-0.12919 0.299723,-0.12919 0.299723,-0.40307 l 0.10852,0.75447 q -0.139526,0.21704 -0.346232,0.35657 -0.201538,0.13953 -0.470255,0.20671 -0.268718,0.0723 -0.604614,0.0723 z" />
        <path
           inkscape:connector-curvature="0"
           id="path4553"
           style="font-style:normal;font-variant:normal;font-weight:normal;font-stretch:normal;font-family:Bahnschrift;-inkscape-font-specification:Bahnschrift;fill:#ff8000;fill-opacity:1;stroke-width:0.26458332"
           d="m 60.694316,101.59451 q -0.501261,0 -0.873331,-0.23771 -0.372071,-0.24288 -0.54777,-0.68213 l 0.07235,-1.121376 q 0,0.346232 0.124023,0.589116 0.124023,0.24287 0.356567,0.37207 0.237712,0.12919 0.573609,0.12919 0.521932,0 0.806152,-0.31523 0.289388,-0.32039 0.289388,-0.89917 v -1.162719 q 0,-0.589112 -0.289388,-0.914673 -0.28422,-0.325562 -0.806152,-0.325562 -0.335897,0 -0.573609,0.124024 -0.232544,0.124023 -0.356567,0.366903 -0.124023,0.237711 -0.124023,0.573608 l -0.108521,-1.033529 q 0.242879,-0.470255 0.63562,-0.72347 0.392741,-0.258382 0.873332,-0.258382 0.568441,0 0.971517,0.258382 0.408244,0.253215 0.620117,0.744141 0.211873,0.490926 0.211873,1.18339 v 1.167887 q 0,0.68213 -0.217041,1.16789 -0.217041,0.48576 -0.63562,0.74414 -0.418579,0.25321 -1.002523,0.25321 z m -2.402954,-7.591265 h 1.0542 V 101.517 h -1.0542 z" />
        <path
           inkscape:connector-curvature="0"
           id="path4555"
           style="font-style:normal;font-variant:normal;font-weight:normal;font-stretch:normal;font-family:Bahnschrift;-inkscape-font-specification:Bahnschrift;fill:#ff8000;fill-opacity:1;stroke-width:0.26458332"
           d="m 67.169373,96.152985 h 1.049032 V 101.517 h -1.049032 z m -2.180745,3.260783 q 0,0.563273 0.28422,0.873332 0.289388,0.30489 0.81132,0.30489 0.516765,0 0.800985,-0.27388 0.28422,-0.27389 0.28422,-0.780319 l 0.07235,1.121379 q -0.165364,0.39791 -0.537434,0.66663 -0.372071,0.26871 -0.914673,0.26871 -0.888835,0 -1.374593,-0.56844 -0.480591,-0.57361 -0.480591,-1.612302 v -3.260783 h 1.054199 z" />
      </g>
      <text
         id="text817-3"
         y="286.95358"
         x="14.868905"
         style="font-style:normal;font-weight:normal;font-size:6.33849096px;line-height:1.25;font-family:sans-serif;letter-spacing:0px;word-spacing:0px;fill:#808080;fill-opacity:1;stroke:none;stroke-width:0.15846227"
         xml:space="preserve"><tspan
           style="font-style:normal;font-variant:normal;font-weight:normal;font-stretch:normal;font-family:Bahnschrift;-inkscape-font-specification:Bahnschrift;fill:#808080;fill-opacity:1;stroke-width:0.15846227"
           y="286.95358"
           x="14.868905"
           id="tspan815-8"
           sodipodi:role="line">bars</tspan></text>
    </g>
  </g>
</svg>
